<?xml version="1.0" encoding="UTF-8"?>
<svg width="105px" height="105px" viewBox="0 0 105 105" version="1.1" xmlns="http://www.w3.org/2000/svg" xmlns:xlink="http://www.w3.org/1999/xlink">
    <title>1491117</title>
    <g id="Landing-page" stroke="none" stroke-width="1" fill="none" fill-rule="evenodd">
        <g id="homepage-main-banner-copy-3" transform="translate(-812.000000, -2642.000000)" fill-rule="nonzero">
            <g id="1491117" transform="translate(812.000000, 2642.000000)">
                <path d="M1.28548003,68.8714931 L16.2846879,103 L23,100.235602 L7.99993922,66.1029503 C7.22886819,64.3481584 5.13486442,63.5300291 3.32233579,64.2760436 L3.17392178,64.3373827 C1.35883424,65.0842261 0.514409003,67.1142145 1.28548003,68.8714931 L1.28548003,68.8714931 Z" id="Path" fill="#E0EBFC"></path>
                <path d="M15.651386,104 C15.3226031,104 15.0095157,103.799822 14.8723852,103.467903 L0.346454601,68.2459934 C-0.103763493,67.1544245 -0.115328619,65.9473687 0.312584837,64.8472453 C0.74297682,63.7445557 1.56245607,62.8813952 2.62232697,62.4160243 L2.76606617,62.3535756 C4.94611234,61.3963143 7.47641959,62.4502427 8.40411642,64.7009616 L22.9325254,99.9271486 C23.0200906,100.141014 23.0225689,100.383109 22.9391341,100.598686 C22.854873,100.815118 22.6913077,100.987065 22.4839595,101.078599 L15.9801691,103.930708 C15.8727778,103.977758 15.7604298,104 15.651386,104 L15.651386,104 Z M1.90197828,67.5573468 L16.0974737,101.976834 L21.0432622,99.807384 L6.84859275,65.3896079 C6.2860269,64.0242916 4.75032955,63.3852619 3.4261105,63.9661202 L3.28319734,64.0294242 C2.63967477,64.3117266 2.14236971,64.8344133 1.88215216,65.5025288 C1.62358648,66.1680776 1.63019518,66.8977863 1.90197828,67.5573468 Z" id="Shape" fill="#3762CC"></path>
                <path d="M19,77 L11.7778711,77 C8.58706882,77 6,79.6987631 6,83.0283316 L6,88.8237 C6,89.479114 6.082289,90.1320671 6.24350849,90.7653331 L9.08416222,101.88112 C9.25293882,102.540636 9.82560374,103 10.4797183,103 L18.9991604,103 L18.9991604,77 L19,77 Z" id="Path" fill="#A4C9FF"></path>
                <path d="M46,77 L53.2221289,77 C56.4129312,77 59,79.6987631 59,83.0283316 L59,88.8237 C59,89.479114 58.917711,90.1320671 58.7556519,90.7653331 L55.9149981,101.88112 C55.7470612,102.540636 55.1743963,103 54.5202817,103 L46,103 L46,77 Z" id="Path" fill="#A4C9FF"></path>
                <path d="M19.1237878,105 L10.4420993,105 C9.3725042,105 8.43810602,104.24288 8.16942387,103.160053 L5.27467194,91.5153653 C5.09241279,90.7823086 5,90.0269077 5,89.2680693 L5,83.1965033 C5,79.227856 8.03422695,76 11.7641186,76 L19.1237878,76 C19.6072447,76 20,76.3944585 20,76.8800118 L20,104.119988 C20,104.605542 19.6072447,105 19.1237878,105 L19.1237878,105 Z M11.7641186,77.7608832 C9.00028509,77.7608832 6.75242443,80.1989629 6.75242443,83.1965033 L6.75242443,89.2680693 C6.75242443,89.8833901 6.82772392,90.4961327 6.97489997,91.0891095 L9.8696519,102.734657 C9.94324014,103.032005 10.1785509,103.239976 10.4420993,103.239976 L18.2475756,103.239976 L18.2475756,77.7600237 L11.7641186,77.7600237 L11.7641186,77.7608832 Z" id="Shape" fill="#3762CC"></path>
                <path d="M54.5579007,105 L45.8762122,105 C45.3918995,105 45,104.605542 45,104.119988 L45,76.8800118 C45,76.3944585 45.3918995,76 45.8762122,76 L53.2358814,76 C56.9649174,76 60,79.2287153 60,83.1965033 L60,89.2680693 C60,90.0260484 59.9075872,90.7823086 59.7253281,91.5153653 L56.8305761,103.160053 C56.5610384,104.24374 55.6266402,105 54.5579007,105 L54.5579007,105 Z M46.7524244,103.239976 L54.5579007,103.239976 C54.8205933,103.239976 55.0559042,103.032005 55.1303481,102.734657 L58.0242442,91.0891095 C58.1714205,90.4961327 58.24672,89.8833901 58.24672,89.2680693 L58.24672,83.1965033 C58.24672,80.1989629 55.9988593,77.7608832 53.2350257,77.7608832 L46.7515688,77.7608832 L46.7515688,103.239976 L46.7524244,103.239976 Z" id="Shape" fill="#3762CC"></path>
                <path d="M16.399442,52 L47.5997125,52 L51.3336997,76.2114903 C51.7767725,79.0874271 52,81.9900082 52,84.8950874 L52,97.293089 C52,100.444629 49.2443241,103 45.8460237,103 L18.1531306,103 C14.7548304,103 12,100.444629 12,97.293089 L12,84.8950874 C12,81.9900082 12.222382,79.0874271 12.6663003,76.2114903 L16.399442,52 Z" id="Path" fill="#A4C9FF"></path>
                <path d="M45.9343328,104 L18.064816,104 C14.1698915,104 11,101.041043 11,97.4038862 L11,84.9367457 C11,81.9828121 11.2289129,79.001248 11.6807821,76.075782 L15.4386992,51.7292734 C15.5033735,51.3097947 15.869294,51 16.3007395,51 L47.7001114,51 C48.130706,51 48.4974774,51.3097947 48.5621517,51.7292734 L52.3200688,76.075782 C52.7710869,79.0004107 53,81.9819747 53,84.9367457 L53,97.4038862 C53,101.041043 49.8301082,104 45.9343328,104 L45.9343328,104 Z M17.0487489,52.7155926 L13.4040117,76.3336651 C12.9657582,79.1745656 12.7428021,82.0690521 12.7428021,84.9367457 L12.7428021,97.4038862 C12.7428021,100.09575 15.1306452,102.285245 18.064816,102.285245 L45.9343328,102.285245 C48.8693546,102.285245 51.2563469,100.09575 51.2563469,97.4038862 L51.2563469,84.9367457 C51.2563469,82.0682148 51.0342416,79.1737283 50.5959883,76.3336651 L46.9504,52.7155926 L17.0487489,52.7155926 Z" id="Shape" fill="#3762CC"></path>
                <path d="M11.2399562,46.2276827 L8.07379765,44.4136442 C6.0903711,43.2772782 5.41119518,40.7590246 6.55647221,38.7890468 L12.3203119,28.8802661 C13.9225344,26.1264446 17.4690644,25.1825141 20.2431986,26.7717677 L27,30.6445366 L19.1628427,44.1191844 C17.5606201,46.8738355 14.0140901,47.8177658 11.2399562,46.2276827 Z" id="Path" fill="#4671C6"></path>
                <path d="M52.7602516,46.2276827 L55.9262843,44.4136442 C57.9096325,43.2772782 58.5887815,40.7590246 57.4435499,38.7890468 L51.6799387,28.8802661 C50.0777797,26.1264446 46.53139,25.1825141 43.757366,26.7717677 L37,30.6445366 L44.8376791,44.1191844 C46.4406704,46.8738355 49.9862276,47.8177658 52.7602516,46.2276827 L52.7602516,46.2276827 Z" id="Path" fill="#4671C6"></path>
                <path d="M14.0964993,48 C12.9549521,48 11.7990725,47.7124845 10.7418345,47.1055076 L7.53471092,45.2669221 C6.36112627,44.5943714 5.52309229,43.5073614 5.1732091,42.2059758 C4.82501198,40.907953 5.00543365,39.5519227 5.68159388,38.38841 L11.5191656,28.3455467 C13.3773415,25.1500902 17.5059651,24.0504699 20.7223627,25.8940994 L27.5665869,29.8184327 C27.7655567,29.9327663 27.9105686,30.1210805 27.9704282,30.3421816 C28.0302876,30.5632825 27.9982502,30.7986752 27.8835896,30.9970779 L19.9441883,44.6549009 C18.6964116,46.799497 16.4268068,48 14.0964993,48 Z M11.6017888,45.6132857 C13.9961713,46.9869704 17.067557,46.1689806 18.4493855,43.7915139 L25.9545942,30.8819034 L19.8607221,27.3871619 C17.4680257,26.0151585 14.3949539,26.8323076 13.0131256,29.2097743 L7.17555344,39.2526374 C6.73040064,40.0168233 6.61152466,40.907953 6.8408458,41.7612515 C7.0710102,42.6170723 7.62239253,43.3316576 8.39550823,43.7747002 L11.6017888,45.6132857 Z" id="Shape" fill="#3762CC"></path>
                <path d="M49.9029014,48 C47.5725843,48 45.3029701,46.7994531 44.0560312,44.6547787 L36.1165972,30.9972971 C36.0010931,30.7988874 35.9698984,30.563486 36.0297582,30.3423768 C36.0887751,30.1212677 36.2337876,29.9329466 36.4327582,29.8194497 L43.2778539,25.8941321 C46.4951078,24.0504351 50.6220621,25.1500957 52.4802455,28.3456689 L58.3178415,38.3888993 C58.9948476,39.5524546 59.1752702,40.9085344 58.8262284,42.2066047 C58.4763436,43.5071972 57.6383063,44.5942469 56.4647168,45.2676628 L53.2584231,47.1063156 C52.2011809,47.712474 51.0444531,48 49.9029014,48 L49.9029014,48 Z M38.0447576,30.8812777 L45.5499972,43.7913601 C46.9318314,46.168073 50.0040729,46.9860927 52.3976222,45.6131984 L55.604759,43.7745457 C56.3770349,43.3314869 56.9292627,42.6168756 57.1594279,41.7601828 C57.3879069,40.9076937 57.2698733,40.0165315 56.8247186,39.2523177 L50.9871228,29.2090875 C49.6052886,26.8315339 46.5330471,26.0135143 44.1394978,27.3864085 L38.0447576,30.8812777 Z" id="Shape" fill="#3762CC"></path>
                <path d="M30.6706772,68 L34.3301609,68 C41.879627,68 48,61.8696062 48,54.3059043 L48,39.252391 C48,32.4855311 42.5241855,27 35.7693119,27 L29.2315263,27 C22.4758145,27 17,32.4855311 17,39.252391 L17,54.3059043 C17,61.8696062 23.120373,68 30.6706772,68 Z" id="Path" fill="#A4C9FF"></path>
                <path d="M33.3451696,69 L29.6548304,69 C21.5741296,69 15,62.4279144 15,54.350571 L15,39.1991076 C15,31.9213003 20.9231419,26 28.2032126,26 L34.7967874,26 C42.0768581,26 48,31.9213003 48,39.1991076 L48,54.350571 C48,62.4279144 41.4258704,69 33.3451696,69 Z M28.2032126,27.7309197 C21.8776421,27.7309197 16.731458,32.8755035 16.731458,39.1991076 L16.731458,54.350571 C16.731458,61.4737109 22.5294752,67.2699255 29.6548304,67.2699255 L33.3451696,67.2699255 C40.470525,67.2699255 46.268542,61.4737109 46.268542,54.350571 L46.268542,39.1991076 C46.268542,32.8755035 41.1223582,27.7309197 34.7967874,27.7309197 L28.2032126,27.7309197 Z" id="Shape" fill="#3762CC"></path>
                <path d="M51,58.8353308 L51,55.1646694 C51,50.1038133 46.9753042,46 42.0109808,46 L20.9898589,46 C16.0246958,46 12,50.1038133 12,55.1646694 L12,58.8353308 C12,63.8970429 16.0246958,68 20.9898589,68 L42.0109808,68 C46.9753042,68 51,63.8970429 51,58.8353308 Z" id="Path" fill="#A4C9FF"></path>
                <path d="M42.0826907,69 L20.9173093,69 C15.4488389,69 11,64.6383885 11,59.2771372 L11,55.722863 C11,50.3616118 15.4488389,46 20.9173093,46 L42.0826907,46 C47.5511611,46 52,50.3616118 52,55.722863 L52,59.2771372 C51.9991546,64.6383885 47.5503154,69 42.0826907,69 Z M20.9173093,47.6975638 C16.4033693,47.6975638 12.7315132,51.2982557 12.7315132,55.722863 L12.7315132,59.2771372 C12.7315132,63.7025733 16.4033693,67.3024362 20.9173093,67.3024362 L42.0826907,67.3024362 C46.5966304,67.3024362 50.2684868,63.7025733 50.2684868,59.2771372 L50.2684868,55.722863 C50.2684868,51.2982557 46.5966304,47.6975638 42.0826907,47.6975638 L20.9173093,47.6975638 Z" id="Shape" fill="#3762CC"></path>
                <path d="M40.3378907,46 L40.6621095,46 C41.953125,46 43,45.1035158 43,43.9960939 L43,42.0039064 C43,40.8973214 41.9541017,40 40.6621095,40 L40.3378907,40 C39.046875,40 38,40.8973214 38,42.0039064 L38,43.9960939 C38,45.1035158 39.046875,46 40.3378907,46 Z" id="Path" fill="#3762CC"></path>
                <path d="M22.337434,46 L22.6625658,46 C23.9533294,46 25,45.1035158 25,43.9960939 L25,42.0039064 C25,40.8973214 23.9533294,40 22.6625658,40 L22.337434,40 C21.0466706,40 20,40.8973214 20,42.0039064 L20,43.9960939 C20,45.1035158 21.0466706,46 22.337434,46 Z" id="Path" fill="#3762CC"></path>
                <path d="M27.5574594,69 L22.8867949,69 C20.739934,69 19,67.2921978 19,65.1868609 L19,56.3394032 C19,53.3910914 21.4364217,51 24.441684,51 L33,51 L33,63.6614372 C33,66.6097495 30.5635785,69 27.5574594,69 L27.5574594,69 Z" id="Path" fill="#E0EBFC"></path>
                <path d="M37.442017,69 L42.1129674,69 C44.2599598,69 46,67.2921978 46,65.1868609 L46,56.3394032 C46,53.3910914 43.5634294,51 40.557983,51 L32,51 L32,63.6614372 C32,66.6097495 34.4357139,69 37.442017,69 L37.442017,69 Z" id="Path" fill="#E0EBFC"></path>
                <path d="M42.1617182,70 L37.4182707,70 C33.8789559,70 31,67.1796293 31,63.7131898 L31,50.8727893 C31,50.391221 31.3993473,50 31.890919,50 L40.582599,50 C44.1210439,50 47,52.8212232 47,56.2876624 L47,65.2601748 C47.0008699,67.8734287 44.8301249,70 42.1617182,70 L42.1617182,70 Z M32.7827079,51.7455785 L32.7827079,63.7131898 C32.7827079,66.2164928 34.862099,68.2544215 37.4182707,68.2544215 L42.1617182,68.2544215 C43.847852,68.2544215 45.219032,66.9111442 45.219032,65.2601748 L45.219032,56.2876624 C45.219032,53.7826551 43.1396409,51.7455785 40.582599,51.7455785 L32.7827079,51.7455785 Z" id="Shape" fill="#3762CC"></path>
                <path d="M26.5817293,70 L21.8382818,70 C19.170745,70 17,67.8734287 17,65.2601748 L17,56.2876624 C17,52.8212232 19.8789561,50 23.4174007,50 L32.109081,50 C32.6006525,50 33,50.391221 33,50.8727893 L33,63.7131898 C33,67.1796293 30.1210441,70 26.5817293,70 L26.5817293,70 Z M23.4174007,51.7455785 C20.861229,51.7455785 18.780968,53.7826551 18.780968,56.2876624 L18.780968,65.2601748 C18.780968,66.9111442 20.1530179,68.2544215 21.8382818,68.2544215 L26.5817293,68.2544215 C29.137901,68.2544215 31.2172921,66.2173451 31.2172921,63.7131898 L31.2172921,51.7455785 L23.4174007,51.7455785 Z" id="Shape" fill="#3762CC"></path>
                <path d="M36.2492734,51 L28.7498547,51 C28.3356907,51 28,51.3259762 28,51.7275042 L28,53.1816639 C28,54.1859083 28.8396627,55 29.8755087,55 L35.1253634,55 C36.1603373,55 37,54.1859083 37,53.1816639 L37,51.7275042 C36.9991281,51.3259762 36.6634374,51 36.2492734,51 Z" id="Path" fill="#F9A7A7"></path>
                <path d="M35.177298,56 L29.8227018,56 C28.2663918,56 27,54.7394585 27,53.1904129 L27,51.6697738 C27,50.7492235 27.7514754,50 28.675479,50 L36.324521,50 C37.2485246,50 38,50.7492235 38,51.6697738 L38,53.1904129 C38,54.7394585 36.7336082,56 35.177298,56 Z M28.8213275,51.8171328 L28.8213275,53.1904129 C28.8213275,53.7372393 29.2713234,54.1819796 29.8235913,54.1819796 L35.177298,54.1819796 C35.7295659,54.1819796 36.1795617,53.7372393 36.1795617,53.1904129 L36.1795617,51.8171328 L28.8213275,51.8171328 Z" id="Shape" fill="#3762CC"></path>
                <path d="M42.7556135,104 L29.9703137,103.951386 L21.2494323,104 C20.1233707,104 19.1680263,103.202896 18.9729208,102.104887 L17.2884535,92.6326772 C17.0975528,91.5564611 17,90.455938 17,89.3629584 L17,75.8582907 C17,75.3838838 17.3860063,75 17.8611555,75 C18.3363047,75 18.722311,75.3838838 18.722311,75.8582907 L18.722311,89.3629584 C18.722311,90.3561952 18.8106132,91.3552992 18.9838534,92.3326108 L20.6683207,101.804821 C20.7170969,102.082257 20.9592969,102.283419 21.2435456,102.283419 L29.9677907,102.234804 L42.7598183,102.283419 C43.0407029,102.283419 43.2829028,102.082257 43.3316793,101.805659 L45.0161466,92.3334489 C45.1902279,91.3552992 45.277689,90.3561952 45.277689,89.3629584 L45.277689,75.8582907 C45.277689,75.3838838 45.6636951,75 46.1388445,75 C46.6139937,75 47,75.3838838 47,75.8582907 L47,89.3629584 C47,90.455938 46.9032881,91.5564611 46.7115465,92.6326772 L45.0279201,102.104887 C44.8328146,103.202896 43.8774702,104 42.7556135,104 L42.7556135,104 Z" id="Path" fill="#3762CC"></path>
                <path d="M32,105 C31.4482422,105 31,104.623477 31,104.16 L31,84.84 C31,84.3765233 31.4482422,84 32,84 C32.5517578,84 33,84.3765233 33,84.84 L33,104.16 C33,104.624297 32.5527345,105 32,105 Z" id="Path" fill="#3762CC"></path>
                <path d="M87.7774991,79.3449526 L76.5551609,103 L72,101.062626 L83.2214803,77.4084081 C83.7902321,76.2103061 85.2708737,75.671824 86.5293335,76.2069873 C87.7869353,76.7421505 88.3462507,78.1468504 87.7774991,79.3449526 Z" id="Path" fill="#F9CFCF"></path>
                <path d="M77.2022087,104 C77.0888774,104 76.9739039,103.975685 76.8638575,103.927055 L72.5030698,101.970131 C72.2961174,101.877064 72.135154,101.703506 72.0546725,101.488865 C71.9750122,101.273385 71.9824033,101.034429 72.0768461,100.825657 L82.8194945,76.9225044 C83.5536835,75.2908957 85.4679954,74.5530664 87.0883031,75.279996 C87.8824428,75.6363339 88.4876971,76.2844498 88.7923774,77.1044465 C89.0954153,77.9185739 89.0658505,78.8031306 88.7094322,79.5954586 L77.9659626,103.49945 C77.8255304,103.813866 77.52085,104 77.2022087,104 L77.2022087,104 Z M73.9624145,100.749359 L76.7833761,102.015407 L87.1811034,78.8794289 C87.3478153,78.5088373 87.3625975,78.0946469 87.2213442,77.7148325 C87.0768058,77.3283105 86.7901929,77.0214407 86.4124222,76.8529136 C85.6273162,76.4999294 84.701778,76.8529136 84.3486444,77.6393726 L73.9624145,100.749359 Z" id="Shape" fill="#3762CC"></path>
                <path d="M85.8567755,90.8355395 C85.7186358,89.9747961 85.4796457,89.1462457 85.1559075,88.3600549 L80.5227213,72 L62.4781262,72 L57.8440925,88.3600549 C57.5203543,89.1462457 57.2822116,89.9747961 57.1432247,90.8355395 L57.0745785,91.342158 C57.026272,91.7623635 57,92.1893464 57,92.6222598 C57,98.905856 62.1933721,104 68.5994915,104 L74.399661,104 C80.8066279,104 86,98.905856 86,92.6222598 C86,92.1893464 85.9728806,91.7623635 85.9245741,91.342158 L85.8567755,90.8355395 Z" id="Path" fill="#E0EBFC"></path>
                <path d="M73.8302589,105 L68.1689139,105 C61.4586815,105 56,99.6262492 56,93.021774 C56,92.5858406 56.0264703,92.1325028 56.0785839,91.6733638 L56.1472414,91.1603546 C56.2903466,90.2661107 56.5327157,89.4033603 56.8693854,88.5754181 L61.3784433,72.6174343 C61.481843,72.2519464 61.8143766,72 62.1932336,72 L79.8059393,72 C80.184796,72 80.518157,72.2519464 80.6207295,72.6174343 L85.1306146,88.5754181 C85.4672843,89.4033603 85.7088262,90.2661107 85.8486227,91.1396352 C85.8494498,91.1462653 85.8511043,91.1528955 85.8519315,91.1603546 L85.9189347,91.6559595 C85.9727025,92.1308454 86,92.5841829 86,93.021774 C86,99.6262492 80.5404914,105 73.8302589,105 L73.8302589,105 Z M62.8334849,73.6964941 L58.4857308,89.0834546 C58.4766318,89.114948 58.465878,89.1456125 58.4542973,89.176277 C58.1573331,89.8973077 57.9447432,90.6481741 57.823145,91.4081572 L57.7594508,91.8830428 C57.7164365,92.2609624 57.6941021,92.6496559 57.6941021,93.021774 C57.6941021,98.6905669 62.3934156,103.302677 68.1689139,103.302677 L73.8302589,103.302677 C79.6065846,103.302677 84.3058979,98.6905669 84.3058979,93.021774 C84.3058979,92.6479984 84.2827364,92.2593047 84.2380678,91.8656387 L84.1752005,91.3982117 C84.0527754,90.6415439 83.8410126,89.8939927 83.5457027,89.176277 C83.5332946,89.1456125 83.5225411,89.114948 83.5142692,89.0834546 L79.1656877,73.6964941 L62.8334849,73.6964941 Z" id="Shape" fill="#3762CC"></path>
                <path d="M87,62 L75,55.4350688 L85.2649885,50.1164257 C85.9157239,49.7788382 86.7123868,50.2147522 86.7293551,50.9177866 L87,62 Z" id="Path" fill="#E0EBFC"></path>
                <polygon id="Path" fill="#F9CFCF" points="79 55.3993067 83.8714722 53 84 58"></polygon>
                <path d="M87.1143798,63 C86.9639384,63 86.813497,62.9630993 86.6786189,62.8884593 L74.4496458,56.1691761 C74.168649,56.0148641 73.9965925,55.7246905 74,55.4118732 C74.0043741,55.0990559 74.1833472,54.8130753 74.4678024,54.6654725 L84.9277936,49.22178 C85.5165898,48.9156717 86.2134613,48.9265744 86.7910174,49.2536487 C87.3599274,49.5748526 87.7083633,50.1442974 87.7230617,50.7783188 L87.9997353,62.1210923 C88.0075167,62.430555 87.8432417,62.71989 87.5700265,62.8783952 C87.4299606,62.9589059 87.2726024,63 87.1143798,63 L87.1143798,63 Z M76.7192338,55.4420647 L86.1927108,60.6475801 L85.9532152,50.8185741 C85.9532152,50.8043169 85.9514859,50.7665776 85.8996096,50.7372247 C85.8693486,50.7204516 85.8209307,50.7061946 85.7647312,50.7347087 L76.7192338,55.4420647 Z" id="Shape" fill="#3762CC"></path>
                <path d="M56,62 L68,55.4350688 L57.7350113,50.1164257 C57.0842759,49.7788382 56.2884613,50.2147522 56.2706446,50.9177866 L56,62 Z" id="Path" fill="#E0EBFC"></path>
                <polygon id="Path" fill="#F9CFCF" points="58.1294266 53 63 55.3993067 58 58"></polygon>
                <path d="M55.8856184,63 C55.727396,63 55.5709026,62.9589071 55.430837,62.8775603 C55.1567578,62.7190598 54.9924831,62.4297335 55.0002647,62.1211186 L55.2769377,50.777846 C55.2925005,50.1446824 55.6418002,49.5744159 56.2098445,49.2532218 C56.7865349,48.9269958 57.4834052,48.9152549 58.0721999,49.2221926 L68.5330344,54.6648835 C68.8174891,54.8124819 68.9964618,55.0992925 69,55.4121005 C69.0042434,55.7240698 68.8321873,56.0150733 68.5511913,56.1685421 L56.322243,62.8876238 C56.1865001,62.9631004 56.0360593,63 55.8856184,63 L55.8856184,63 Z M57.1704187,50.7191422 C57.1427514,50.7191422 57.1185425,50.7275284 57.1012505,50.7375919 C57.0485097,50.7669439 57.0476452,50.8046821 57.0476452,50.8189389 L56.8081499,60.6476506 L66.280743,55.442291 L57.2361286,50.735076 C57.2119197,50.7233353 57.1903046,50.7191422 57.1704187,50.7191422 L57.1704187,50.7191422 Z" id="Shape" fill="#3762CC"></path>
                <path d="M74.4418948,78 L67.5581052,78 C60.6228307,78 55,72.4031856 55,65.5 C55,58.5959743 60.6228307,53 67.5581052,53 L74.4418948,53 C81.3771693,53 87,58.5959743 87,65.5 C87,72.4031856 81.3780133,78 74.4418948,78 Z" id="Path" fill="#E0EBFC"></path>
                <path d="M79.9066951,71.0919317 C78.7623804,66.8912927 75.1304995,64 71.0004249,64 C66.8703507,64 63.2393198,66.8912927 62.0941552,71.0919317 L61,75.1056451 C62.9460148,76.3059514 65.234644,77 67.6848035,77 L74.3151965,77 C76.765356,77 79.0548353,76.3068167 81,75.1056451 L79.9066951,71.0919317 Z" id="Path" fill="#F9CFCF"></path>
                <g id="Group" transform="translate(51.000000, 52.000000)" fill="#3762CC">
                    <path d="M14.5538815,14.7749063 C13.8751241,14.7749063 13.3243221,14.2264687 13.3243221,13.550625 L13.3243221,11.6791874 C13.3243221,11.0033437 13.8751241,10.4549063 14.5538815,10.4549063 C15.2326389,10.4549063 15.7825934,11.0033437 15.7825934,11.6791874 L15.7825934,13.550625 C15.7825934,14.2273126 15.2326389,14.7749063 14.5538815,14.7749063 Z" id="Path"></path>
                    <path d="M26.8460854,14.7749063 C26.167328,14.7749063 25.6173736,14.2264687 25.6173736,13.550625 L25.6173736,11.6791874 C25.6173736,11.0033437 26.1681754,10.4549063 26.8460854,10.4549063 C27.5256904,10.4549063 28.0756448,11.0033437 28.0756448,11.6791874 L28.0756448,13.550625 C28.0756448,14.2273126 27.5256904,14.7749063 26.8460854,14.7749063 Z" id="Path"></path>
                    <path d="M22.3066303,19.3944374 C21.6083829,19.3944374 20.948268,19.1683126 20.4533936,18.7793437 C19.957672,19.1683126 19.297557,19.3944374 18.5993096,19.3944374 C17.0994338,19.3944374 15.8783481,18.356625 15.8783481,17.080875 C15.8783481,16.6041563 16.2672991,16.216875 16.746073,16.216875 C17.2248471,16.216875 17.6137978,16.6041563 17.6137978,17.080875 C17.6137978,17.357625 18.035797,17.6664374 18.5993096,17.6664374 C19.0577463,17.6664374 19.3933119,17.4673126 19.5229622,17.269875 C19.7288772,16.9576874 20.0771536,16.7712187 20.4533936,16.7712187 C20.8296337,16.7712187 21.1779101,16.9576874 21.3838253,17.269875 C21.5134755,17.4673126 21.8498883,17.6664374 22.3066303,17.6664374 C22.8709905,17.6664374 23.2929894,17.357625 23.2929894,17.080875 C23.2929894,16.6041563 23.6810928,16.216875 24.1607143,16.216875 C24.6394882,16.216875 25.0284392,16.6041563 25.0284392,17.080875 C25.0275918,18.356625 23.8065064,19.3944374 22.3066303,19.3944374 L22.3066303,19.3944374 Z" id="Path"></path>
                    <path d="M24.0319114,26.8785 L17.1206184,26.8785 C9.68987687,26.8785 3.64461387,20.8583437 3.64461387,13.4595 C3.64461387,6.0606563 9.68987687,0.041343696 17.1206184,0.041343696 L24.0319114,0.041343696 C31.4626529,0.041343696 37.5079159,6.0606563 37.5079159,13.4595 C37.5079159,20.8583437 31.4626529,26.8785 24.0319114,26.8785 Z M17.1214657,1.7693437 C10.6474247,1.7693437 5.3800636,7.0140937 5.3800636,13.4603437 C5.3800636,19.90575 10.6474247,25.1505 17.1214657,25.1505 L24.0319114,25.1505 C30.5059524,25.1505 35.7733135,19.90575 35.7733135,13.4603437 C35.7733135,7.0140937 30.5059524,1.7693437 24.0319114,1.7693437 L17.1214657,1.7693437 Z" id="Shape"></path>
                    <path d="M40.1009218,17.3415937 L32.6862805,17.3415937 C32.2075066,17.3415937 31.8185557,16.9543126 31.8185557,16.4775937 C31.8185557,16.000875 32.2075066,15.6135937 32.6862805,15.6135937 L40.1009218,15.6135937 C40.5796958,15.6135937 40.9686467,16.000875 40.9686467,16.4775937 C40.9686467,16.9543126 40.5796958,17.3415937 40.1009218,17.3415937 Z" id="Path"></path>
                    <path d="M32.6896701,15.2895937 C32.3871528,15.2895937 32.0931092,15.1318126 31.9338004,14.8516874 C31.6973794,14.4365626 31.8439774,13.908375 32.2608921,13.6738126 L38.6815476,10.0524374 C39.0984623,9.8170313 39.6280795,9.963 39.8645007,10.378125 C40.1000743,10.79325 39.9543239,11.3205937 39.5365616,11.5551563 L33.1159061,15.177375 C32.9811714,15.2533126 32.8345734,15.2895937 32.6896701,15.2895937 Z" id="Path"></path>
                    <path d="M39.108631,23.0158126 C38.9637276,23.0158126 38.8171296,22.9795313 38.6815476,22.9035937 L32.2608921,19.2822187 C31.8439774,19.0468126 31.6973794,18.5194687 31.9338004,18.1043437 C32.1693742,17.6892187 32.6989914,17.54325 33.1159061,17.7786563 L39.5365616,21.4000313 C39.9543239,21.6345937 40.1009218,22.1627813 39.8645007,22.5779063 C39.7043445,22.8580313 39.4111483,23.0158126 39.108631,23.0158126 L39.108631,23.0158126 Z" id="Path"></path>
                    <path d="M8.46709656,17.3415937 L1.0533028,17.3415937 C0.573681328,17.3415937 0.185577931,16.9543126 0.185577931,16.4775937 C0.185577931,16.000875 0.573681328,15.6135937 1.0533028,15.6135937 L8.46709656,15.6135937 C8.94587048,15.6135937 9.33482143,16.000875 9.33482143,16.4775937 C9.33482143,16.9543126 8.94587048,17.3415937 8.46709656,17.3415937 Z" id="Path"></path>
                    <path d="M2.04389881,23.0158126 C1.74222884,23.0158126 1.4481853,22.8580313 1.28887643,22.5770626 C1.05245525,22.1619374 1.19905346,21.6345937 1.61596814,21.3991874 L8.03662368,17.7778126 C8.45353836,17.54325 8.98315553,17.688375 9.21872939,18.1035 C9.45515057,18.518625 9.30855236,19.0468126 8.89163768,19.281375 L2.47098214,22.90275 C2.33624747,22.9795313 2.18880214,23.0158126 2.04389881,23.0158126 L2.04389881,23.0158126 Z" id="Path"></path>
                    <path d="M8.46370701,15.2895937 C8.31880368,15.2895937 8.17220569,15.2533126 8.03662368,15.177375 L1.61596814,11.556 C1.19905346,11.3205937 1.05245525,10.79325 1.28887643,10.378125 C1.52529762,9.9638437 2.05406746,9.8170313 2.47182948,10.0524374 L8.89248523,13.6738126 C9.30939969,13.9092187 9.4559979,14.4365626 9.21957672,14.8516874 C9.06026786,15.1318126 8.76622432,15.2895937 8.46370701,15.2895937 L8.46370701,15.2895937 Z" id="Path"></path>
                </g>
                <path d="M72.5450606,66.656693 L73.5909879,65.8286964 C73.8171577,65.6488189 73.9514731,65.4255468 74,65.1931759 C73.1863085,65.0678915 72.3509532,65 71.5,65 C70.6499133,65 69.8136915,65.0678915 69,65.1931759 C69.0485269,65.4262467 69.1828423,65.6495188 69.4098788,65.8286964 L70.4549394,66.656693 C71.0320625,67.1144357 71.9679377,67.1144357 72.5450606,66.656693 L72.5450606,66.656693 Z" id="Path" fill="#F9A7A7"></path>
                <path d="M76.415338,105 L73.4762944,105 C73.3017648,105 73.1255407,104.984405 72.9544002,104.954037 C72.0995444,104.801374 71.4785241,104.06843 71.4785241,103.209908 L71.4785241,92.0581563 C71.4785241,92.0524109 71.4785241,92.0359956 71.4598851,92.0195802 C71.4361626,91.9990611 71.4082041,92.0015233 71.3988845,92.002344 C71.3760092,92.0039856 71.3412728,92.0474862 71.3412728,92.0967322 L71.3412728,103.220579 C71.3412728,104.19729 70.5321673,104.995075 69.5375185,105 L66.584919,105 C65.2183358,105 64.0432266,104.06843 63.7899047,102.784752 L63.4069562,100.840356 C60.3484531,89.3126927 61.0626687,85.8080206 61.0940162,85.6635657 C61.1948368,85.2096819 61.6557303,84.9207722 62.1250961,85.0192641 C62.5902259,85.1161145 62.8876038,85.5576869 62.7927139,86.0091083 C62.7783111,86.0854395 62.1928745,89.5195258 65.0937928,100.447209 C65.0980291,100.464445 65.1031124,100.481681 65.1056541,100.498917 L65.4945329,102.469577 C65.5919645,102.962037 66.0503163,103.319071 66.5857662,103.319071 L69.5231154,103.319071 C69.5680186,103.319071 69.6061441,103.269004 69.6061441,103.220579 L69.6061441,92.0967322 C69.6061441,91.1889647 70.3220541,90.4125196 71.2362162,90.3288016 C71.746249,90.2836594 72.2528931,90.4453503 72.6282164,90.7769399 C73.0001506,91.1052464 73.2136528,91.5722626 73.2136528,92.0573354 L73.2136528,103.209908 C73.2136528,103.255871 73.2433059,103.296089 73.2678755,103.300193 C73.3365012,103.312504 73.4059742,103.319071 73.4762944,103.319071 L76.4144908,103.319071 C76.9490933,103.319071 77.4082925,102.961216 77.5057241,102.468756 L77.8937557,100.498917 C77.8979918,100.48086 77.9013809,100.463624 77.905617,100.447209 C80.8260214,89.44894 80.2143209,86.0411182 80.207543,86.0082875 C80.1177367,85.5560452 80.420198,85.1136521 80.8861749,85.022547 C81.3521519,84.9298005 81.8062676,85.2146064 81.9053936,85.6643864 C81.9375882,85.8080206 82.6518038,89.3135137 79.5933008,100.840356 L79.2095053,102.784752 C78.9561832,104.06843 77.781074,105 76.415338,105 L76.415338,105 Z" id="Path" fill="#3762CC"></path>
                <path d="M59.7687045,26.0632012 L70.8453619,38.700971 C73.3724101,41.583989 76.6887948,43.0160987 80.0001568,43 C83.3115193,43.0160987 86.6279038,41.583989 89.154952,38.700971 L100.230772,26.0632012 C105.256409,20.3296357 105.256409,11.0337399 100.230772,5.30017414 C95.2059727,-0.433391381 87.0589836,-0.433391381 82.0341838,5.30017414 L81.1360313,6.32469658 C80.5082451,7.04075153 79.4912316,7.04075153 78.8634456,6.32469658 L77.9652931,5.30017414 C72.9404933,-0.433391381 64.7935042,-0.433391381 59.7678675,5.30017414 C54.7439047,11.0337399 54.7439047,20.3296357 59.7687045,26.0632012 L59.7687045,26.0632012 Z" id="Path" fill="#F9CFCF"></path>
                <path d="M59.7687045,26.0632012 L70.8453619,38.700971 C73.3724101,41.583989 76.6887948,43.0160987 80.0001568,43 C83.3115193,43.0160987 86.6279038,41.583989 89.154952,38.700971 L100.230772,26.0632012 C105.256409,20.3296357 105.256409,11.0337399 100.230772,5.30017414 C95.2059727,-0.433391381 87.0589836,-0.433391381 82.0341838,5.30017414 L81.1360313,6.32469658 C80.5082451,7.04075153 79.4912316,7.04075153 78.8634456,6.32469658 L77.9652931,5.30017414 C72.9404933,-0.433391381 64.7935042,-0.433391381 59.7678675,5.30017414 C54.7439047,11.0337399 54.7439047,20.3296357 59.7687045,26.0632012 L59.7687045,26.0632012 Z" id="Path" fill="#F9CFCF"></path>
                <path d="M80.0583367,43 C80.0172073,43 79.9760777,43 79.934109,43 C76.236654,43 72.7607943,41.4004211 70.1494929,38.4905577 L59.0025684,26.0728844 C53.6658105,20.1279656 53.6658105,10.4552072 59.0025684,4.5102884 C61.6130305,1.60211681 65.0914082,0 68.7964177,0 C72.5014269,0 75.9789653,1.60127075 78.5902665,4.5102884 L79.4942755,5.51689804 C79.7746273,5.82987766 80.2253728,5.82987766 80.5057245,5.51689804 L81.4097334,4.5102884 C84.0201955,1.60211681 87.4985731,0 91.2035824,0 C94.9085919,0 98.3869695,1.60127075 100.997431,4.5102884 C106.33419,10.4552072 106.33419,20.1288115 100.997431,26.0728844 L89.8505069,38.4905577 C87.240045,41.3995753 83.7641856,42.9991542 80.0583367,43 Z M79.9962228,41.2671462 L80.0499429,41.2671462 C83.2723106,41.2671462 86.2949066,39.8693591 88.576333,37.3283039 L99.7232575,24.9106307 C104.485042,19.606051 104.485042,10.9762757 99.7232575,5.67254191 C97.4426707,3.13148692 94.4175563,1.73153801 91.2044219,1.73153801 C87.9921267,1.73153801 84.9661732,3.13064086 82.6855862,5.67169607 L81.7815774,6.67915177 C81.3115263,7.20275807 80.6786361,7.49120669 80.0012591,7.49120669 C79.3230426,7.49120669 78.6909917,7.20275807 78.2201013,6.67915177 L77.3160925,5.67169607 C75.0355057,3.13064086 72.009552,1.73153801 68.797257,1.73153801 C65.5841224,1.73153801 62.5590083,3.13064086 60.2784212,5.67169607 C55.5166364,10.9762757 55.5166364,19.606051 60.2784212,24.9106307 L71.4253457,37.3283039 C73.7067721,39.8693591 76.7302074,41.2671462 79.9433422,41.2671462 C79.960969,41.2676162 79.9785959,41.2671462 79.9962228,41.2671462 Z" id="Shape" fill="#3762CC"></path>
                <path d="M80.0583367,43 C80.0172073,43 79.9760777,43 79.934109,43 C76.236654,43 72.7607943,41.4004211 70.1494929,38.4905577 L59.0025684,26.0728844 C53.6658105,20.1279656 53.6658105,10.4552072 59.0025684,4.5102884 C61.6130305,1.60211681 65.0914082,0 68.7964177,0 C72.5014269,0 75.9789653,1.60127075 78.5902665,4.5102884 L79.4942755,5.51689804 C79.7746273,5.82987766 80.2253728,5.82987766 80.5057245,5.51689804 L81.4097334,4.5102884 C84.0201955,1.60211681 87.4985731,0 91.2035824,0 C94.9085919,0 98.3869695,1.60127075 100.997431,4.5102884 C106.33419,10.4552072 106.33419,20.1288115 100.997431,26.0728844 L89.8505069,38.4905577 C87.240045,41.3995753 83.7641856,42.9991542 80.0583367,43 Z M79.9962228,41.2671462 L80.0499429,41.2671462 C83.2723106,41.2671462 86.2949066,39.8693591 88.576333,37.3283039 L99.7232575,24.9106307 C104.485042,19.606051 104.485042,10.9762757 99.7232575,5.67254191 C97.4426707,3.13148692 94.4175563,1.73153801 91.2044219,1.73153801 C87.9921267,1.73153801 84.9661732,3.13064086 82.6855862,5.67169607 L81.7815774,6.67915177 C81.3115263,7.20275807 80.6786361,7.49120669 80.0012591,7.49120669 C79.3230426,7.49120669 78.6909917,7.20275807 78.2201013,6.67915177 L77.3160925,5.67169607 C75.0355057,3.13064086 72.009552,1.73153801 68.797257,1.73153801 C65.5841224,1.73153801 62.5590083,3.13064086 60.2784212,5.67169607 C55.5166364,10.9762757 55.5166364,19.606051 60.2784212,24.9106307 L71.4253457,37.3283039 C73.7067721,39.8693591 76.7302074,41.2671462 79.9433422,41.2671462 C79.960969,41.2676162 79.9785959,41.2671462 79.9962228,41.2671462 Z" id="Shape" fill="#3762CC"></path>
            </g>
        </g>
    </g>
</svg>