<?xml version="1.0" encoding="UTF-8"?>
<svg width="32px" height="32px" viewBox="0 0 32 32" version="1.1" xmlns="http://www.w3.org/2000/svg" xmlns:xlink="http://www.w3.org/1999/xlink">
    <title>facebook</title>
    <g id="Landing-page" stroke="none" stroke-width="1" fill="none" fill-rule="evenodd">
        <g id="homepage-main-banner-copy-3" transform="translate(-161.000000, -6392.000000)" fill="#FFFFFF" fill-rule="nonzero">
            <g id="Group-3" transform="translate(161.000000, 6392.000000)">
                <path d="M16,0 C7.17763635,0 0,7.17763635 0,16 C0,24.8217192 7.17763635,32 16,32 C24.8217192,32 32,24.8217192 32,16 C32,7.17763635 24.8230081,0 16,0 Z M19.9790542,16.5632804 L17.3759768,16.5632804 C17.3759768,20.7221461 17.3759768,25.8412954 17.3759768,25.8412954 L13.5187304,25.8412954 C13.5187304,25.8412954 13.5187304,20.7717715 13.5187304,16.5632804 L11.6851688,16.5632804 L11.6851688,13.2841376 L13.5187304,13.2841376 L13.5187304,11.1631354 C13.5187304,9.64408282 14.2405543,7.27044228 17.4114235,7.27044228 L20.2697172,7.28139853 L20.2697172,10.464513 C20.2697172,10.464513 18.5328285,10.464513 18.195118,10.464513 C17.8574076,10.464513 17.3772658,10.6333682 17.3772658,11.3577701 L17.3772658,13.2847821 L20.3161202,13.2847821 L19.9790542,16.5632804 Z" id="facebook"></path>
            </g>
        </g>
    </g>
</svg>