<?xml version="1.0" encoding="UTF-8"?>
<svg width="24px" height="24px" viewBox="0 0 24 24" version="1.1" xmlns="http://www.w3.org/2000/svg" xmlns:xlink="http://www.w3.org/1999/xlink">
    <title>1051326</title>
    <g id="Landing-page" stroke="none" stroke-width="1" fill="none" fill-rule="evenodd">
        <g id="homepage-main-banner-copy-3" transform="translate(-176.000000, -473.000000)" fill="#000000" fill-rule="nonzero">
            <g id="1051326" transform="translate(176.000000, 473.000000)">
                <path d="M12.0000915,0 C5.40897681,0 0,5.40893555 0,12 C0,17.6244507 3.94668536,22.7336426 9.18757009,24 L9.18757009,20.0299072 C8.66827902,20.1436157 8.19037008,20.1469116 7.66174059,19.9910888 C6.95256767,19.7817993 6.37633039,19.3093872 5.94859276,18.5890503 C5.67594665,18.1290893 5.19272761,17.63031 4.68863443,17.6669311 L4.56503728,16.2661743 C5.65507244,16.1727905 6.59807277,16.9302979 7.1578305,17.8707276 C7.4064896,18.2889404 7.69268564,18.5341186 8.05999799,18.6425171 C8.41504221,18.7470703 8.79627073,18.6968994 9.24048796,18.539978 C9.35200003,17.6506348 9.75941284,17.317749 10.0672155,16.848999 L10.0672155,16.8482666 C6.9415813,16.3820801 5.69590528,14.723877 5.20151674,13.4150391 C4.54636036,11.677185 4.89792554,9.50610352 6.05644269,8.13409425 C6.07896484,8.10736083 6.11961455,8.03741456 6.10386738,7.98852539 C5.57267433,6.38397216 6.21995711,5.05664063 6.24376102,4.91583253 C6.85680281,5.09710692 6.95641294,4.73345948 8.90668414,5.91833494 L9.24378391,6.12084961 C9.38477617,6.20489503 9.34046434,6.15692138 9.4814566,6.14630128 C10.2957328,5.92510988 11.1541378,5.80297852 11.9999085,5.79199219 C12.8520878,5.80297852 13.7049996,5.92510988 14.5529675,6.15527344 L14.6620991,6.16625977 C14.6525776,6.16479492 14.6917625,6.15930178 14.7574978,6.12011719 C17.1937347,4.6444702 17.1062096,5.12677003 17.7595349,4.91436769 C17.7831557,5.05535888 18.4218324,6.40429688 17.8963157,7.98852539 C17.8254534,8.20678711 20.0084534,10.2057495 18.7984833,13.4144897 C18.3040947,14.723877 17.0586018,16.3820801 13.9329676,16.8482666 L13.9329676,16.848999 C14.3336054,17.4596557 14.8149934,17.7844849 14.8124299,19.0442505 L14.8124299,24 C20.0534977,22.7336426 24,17.6244507 24,12 C24,5.40893555 18.5912063,0 12.0000915,0 Z" id="Path"></path>
            </g>
        </g>
    </g>
</svg>