<?xml version="1.0" encoding="UTF-8"?>
<svg width="98px" height="88px" viewBox="0 0 98 88" version="1.1" xmlns="http://www.w3.org/2000/svg" xmlns:xlink="http://www.w3.org/1999/xlink">
    <title>1717824</title>
    <g id="Landing-page" stroke="none" stroke-width="1" fill="none" fill-rule="evenodd">
        <g id="homepage-main-banner-copy-3" transform="translate(-812.000000, -951.000000)" fill-rule="nonzero">
            <g id="1717824" transform="translate(812.000000, 951.000000)">
                <g id="Group" transform="translate(0.000000, 54.000000)" fill="#EDA1AB">
                    <path d="M13.0341882,6.59955085 C13.0341882,10.1841318 10.116322,13.0898204 6.51746998,13.0898204 C2.91786616,13.0898204 0,10.1841318 0,6.59955085 C0,3.01497006 2.91786616,0.109281341 6.51746998,0.109281341 C10.116322,0.109281341 13.0341882,3.01497006 13.0341882,6.59955085 L13.0341882,6.59955085 Z" id="Path"></path>
                    <path d="M45.6959503,25.3952096 C45.6959503,28.9790419 42.778084,31.8854791 39.1792319,31.8854791 C35.5796283,31.8854791 32.6617621,28.9790419 32.6617621,25.3952096 C32.6617621,21.8106288 35.5796283,18.9049401 39.1792319,18.9049401 C42.778084,18.9049401 45.6959503,21.8106288 45.6959503,25.3952096 Z" id="Path"></path>
                    <path d="M65.8571883,25.3952096 C65.8571883,28.9790419 62.9393222,31.8854791 59.3397185,31.8854791 C55.7408665,31.8854791 52.8230001,28.9790419 52.8230001,25.3952096 C52.8230001,21.8106288 55.7408665,18.9049401 59.3397185,18.9049401 C62.9393222,18.9049401 65.8571883,21.8106288 65.8571883,25.3952096 L65.8571883,25.3952096 Z" id="Path"></path>
                </g>
                <path d="M26,64.5 C26,68.0899549 23.0899549,71 19.5,71 C15.9100451,71 13,68.0899549 13,64.5 C13,60.9100451 15.9100451,58 19.5,58 C23.0899549,58 26,60.9100451 26,64.5 Z" id="Path" fill="#E26E7E"></path>
                <path d="M98,60.5 C98,64.0899551 95.0897873,67 91.4996251,67 C87.9102127,67 85,64.0899551 85,60.5 C85,56.9100451 87.9102127,54 91.4996251,54 C95.0897873,54 98,56.9100451 98,60.5 L98,60.5 Z" id="Path" fill="#EDA1AB"></path>
                <path d="M85,64.5 C85,68.0899549 82.0899549,71 78.5,71 C74.9100451,71 72,68.0899549 72,64.5 C72,60.9100451 74.9100451,58 78.5,58 C82.0899549,58 85,60.9100451 85,64.5 L85,64.5 Z" id="Path" fill="#E26E7E"></path>
                <path d="M94.9630066,49.2649801 C92.3332287,46.7239807 88.1394133,46.8825584 85.5201577,49.4348309 C83.757703,51.1521287 81.4368245,52.0960788 78.970891,52.0960788 C77.0333183,52.0960788 75.2310298,51.5061098 73.7338828,50.4960232 C70.9725786,48.6329245 70.2690999,44.8766646 72.0638725,42.0703672 C74.799623,37.7932816 76.3779407,32.704519 76.3568964,27.2452411 C76.2982731,12.4050838 64.2466908,0.218658917 49.4074987,0.00296327938 C34.1120977,-0.219496284 21.6433883,12.1119784 21.6433883,27.3557194 C21.6433883,32.7804258 23.2232092,37.83612 25.947686,42.0884044 C27.7402038,44.8864347 27.020942,48.6374337 24.266402,50.4960232 C22.7692549,51.5061098 20.9669664,52.0960788 19.0293937,52.0960788 C16.5634602,52.0960788 14.2425817,51.1521287 12.480127,49.4348309 C9.8608714,46.8825584 5.66630445,46.7239807 3.03727812,49.2649801 C0.348877139,51.8638489 0.321068734,56.1499533 2.95460444,58.782642 C7.24837993,63.0762618 12.9573803,65.4406461 19.0293937,65.4406461 C25.3817464,65.4406461 31.1335868,62.8199824 35.2627662,58.6045239 C34.1105944,64.5365285 31.5973115,70.8397998 26.112282,76.8168976 C23.6207948,79.5322571 23.8019255,83.7529763 26.5173836,86.2443732 C27.7988271,87.4198014 29.4147237,88 31.0268625,88 C32.8306541,88 34.6291846,87.2732486 35.9452009,85.8392863 C43.1866724,77.9472327 46.5830616,69.6200302 48.1756593,62.0774485 C48.3643057,61.1831008 49.635979,61.1831008 49.8246254,62.0774485 C51.4172231,69.6200302 54.8128608,77.9472327 62.0550838,85.8392863 C63.3711001,87.2732486 65.1696306,88 66.9734222,88 C68.5855611,88 70.2014576,87.4198014 71.4829011,86.2443732 C74.1976077,83.7529763 74.3794899,79.5322571 71.8872512,76.8168976 C66.4022215,70.8397998 63.8896903,64.5365285 62.7375185,58.6045239 C66.8666979,62.8199824 72.6177868,65.4406461 78.970891,65.4406461 C85.0429044,65.4406461 90.7519048,63.0762618 95.0456803,58.782642 C97.6784644,56.1499533 97.6514076,51.8638489 94.9630066,49.2649801 Z" id="Path" fill="#B49CDC"></path>
                <path d="M94.9630066,49.2649801 C92.3332287,46.7239807 88.1394133,46.8825584 85.5201577,49.4348309 C83.757703,51.1521287 81.4368245,52.0960788 78.970891,52.0960788 C77.0333183,52.0960788 75.2310298,51.5061098 73.7338828,50.4960232 C70.9725786,48.6329245 70.2690999,44.8766646 72.0638725,42.0703672 C74.799623,37.7932816 76.3779407,32.704519 76.3568964,27.2452411 C76.2982731,12.4050838 64.2466908,0.218658917 49.4074987,0.00296327938 C34.1120977,-0.219496284 21.6433883,12.1119784 21.6433883,27.3557194 C21.6433883,32.7804258 23.2232092,37.83612 25.947686,42.0884044 C27.7402038,44.8864347 27.020942,48.6374337 24.266402,50.4960232 C22.7692549,51.5061098 20.9669664,52.0960788 19.0293937,52.0960788 C16.5634602,52.0960788 14.2425817,51.1521287 12.480127,49.4348309 C9.8608714,46.8825584 5.66630445,46.7239807 3.03727812,49.2649801 C0.348877139,51.8638489 0.321068734,56.1499533 2.95460444,58.782642 C7.24837993,63.0762618 12.9573803,65.4406461 19.0293937,65.4406461 C25.3817464,65.4406461 31.1335868,62.8199824 35.2627662,58.6045239 C34.1105944,64.5365285 31.5973115,70.8397998 26.112282,76.8168976 C23.6207948,79.5322571 23.8019255,83.7529763 26.5173836,86.2443732 C27.7988271,87.4198014 29.4147237,88 31.0268625,88 C32.8306541,88 34.6291846,87.2732486 35.9452009,85.8392863 C43.1866724,77.9472327 46.5830616,69.6200302 48.1756593,62.0774485 C48.3643057,61.1831008 49.635979,61.1831008 49.8246254,62.0774485 C51.4172231,69.6200302 54.8128608,77.9472327 62.0550838,85.8392863 C63.3711001,87.2732486 65.1696306,88 66.9734222,88 C68.5855611,88 70.2014576,87.4198014 71.4829011,86.2443732 C74.1976077,83.7529763 74.3794899,79.5322571 71.8872512,76.8168976 C66.4022215,70.8397998 63.8896903,64.5365285 62.7375185,58.6045239 C66.8666979,62.8199824 72.6177868,65.4406461 78.970891,65.4406461 C85.0429044,65.4406461 90.7519048,63.0762618 95.0456803,58.782642 C97.6784644,56.1499533 97.6514076,51.8638489 94.9630066,49.2649801 Z" id="Path" fill="#B49CDC"></path>
                <path d="M39.7021681,2 C29.170738,5.78845052 21.6424904,15.8293788 21.6424904,27.6212402 C21.6424904,33.0221954 23.2222426,38.0557541 25.9466009,42.2894206 C27.7390407,45.0752002 27.0198102,48.8097761 24.26539,50.660228 C22.7683081,51.6658922 20.966098,52.253278 19.0286095,52.253278 C16.5627833,52.253278 14.2420057,51.3134609 12.4796277,49.603682 C9.860486,47.0625842 5.66610149,46.9047008 3.03718951,49.4345749 C0.34890546,52.0220649 0.321098264,56.2894033 2.95451942,58.9105653 C7.24810816,63.1853862 12.9568602,65.5394185 19.0286095,65.5394185 C25.3806859,65.5394185 31.1322761,62.9302289 35.261276,58.733227 C34.1091543,64.6392594 31.5959806,70.9149329 26.1111897,76.865861 C23.6198109,79.5693316 23.8009338,83.7715712 26.5162737,86.2520599 C27.7976615,87.4223417 29.4134878,88 31.0255565,88 C32.8292696,88 34.6277219,87.2764306 35.943681,85.8487466 C42.9330691,78.2643627 46.3398324,70.2774138 48,62.9773693 C33.3388185,50.882462 27.4684838,13.2763087 39.7021681,2 L39.7021681,2 Z" id="Path" fill="#908CD6"></path>
                <path d="M69,8.43672849 C65.9413479,5.09490746 62.0985809,2.51080257 57.7768845,1 C56.0885447,2.32561738 55,4.40740741 55,6.75 C55,10.753858 58.1772515,14 62.0978255,14 C65.4488211,14 68.2551666,11.6273148 69,8.43672849 L69,8.43672849 Z" id="Path" fill="#908CD6"></path>
                <path d="M40,12.0003998 C40,14.2088956 38.4333266,16 36.5,16 C34.5666734,16 33,14.2088956 33,12.0003998 C33,9.79110441 34.5666734,8 36.5,8 C38.4333266,8 40,9.79110441 40,12.0003998 Z" id="Path" fill="#908CD6"></path>
                <path d="M38,33.0003738 C38,30.2386612 35.090395,28 31.5,28 C27.909605,28 25,30.2386612 25,33.0003738 C25,35.761339 27.909605,38 31.5,38 C35.090395,38 38,35.761339 38,33.0003738 Z" id="Path" fill="#EDA1AB"></path>
                <path d="M73,33.0003738 C73,30.2386612 70.090395,28 66.5,28 C62.909605,28 60,30.2386612 60,33.0003738 C60,35.761339 62.909605,38 66.5,38 C70.090395,38 73,35.761339 73,33.0003738 Z" id="Path" fill="#EDA1AB"></path>
                <path d="M33.5,28 C32.6710938,28 32,27.3071035 32,26.4530684 L32,23.5469316 C32,22.6928967 32.6710938,22 33.5,22 C34.328125,22 35,22.6928967 35,23.5469316 L35,26.4530684 C35,27.3071035 34.328125,28 33.5,28 Z" id="Path" fill="#4E5660"></path>
                <path d="M54,28.3902639 C54,25.291588 51.7608855,25 49,25 C46.2391145,25 44,25.291588 44,28.3902639 C44,31.4882001 46.2391145,34 49,34 C51.7608855,34 54,31.4882001 54,28.3902639 L54,28.3902639 Z" id="Path" fill="#4E5660"></path>
                <path d="M64.5,28 C63.671875,28 63,27.3071035 63,26.4530684 L63,23.5469316 C63,22.6928967 63.671875,22 64.5,22 C65.3289062,22 66,22.6928967 66,23.5469316 L66,26.4530684 C66,27.3071035 65.3289062,28 64.5,28 Z" id="Path" fill="#4E5660"></path>
                <path d="M87.4200112,57 C87.0567783,57 86.6935454,56.8609146 86.4161272,56.5842235 C85.8612909,56.0293614 85.8612909,55.1297452 86.4161272,54.5748833 L87.5746255,53.4155916 C88.1302017,52.8614695 89.0290364,52.8614695 89.5838728,53.4155916 C90.1387091,53.9704537 90.1387091,54.8700699 89.5838728,55.4249318 L88.4246347,56.5842235 C88.1472165,56.8609146 87.7839836,57 87.4200112,57 L87.4200112,57 Z" id="Path" fill="#908CD6"></path>
                <path d="M32.3783263,81 C32.0258021,81 31.67256,80.8650274 31.4033206,80.5958002 C30.8655598,80.0573455 30.8655598,79.1850489 31.4033206,78.6465944 L32.6461297,77.403841 C33.1846086,76.8653863 34.0576623,76.8653863 34.596141,77.403841 C35.1346197,77.9422958 35.1346197,78.8153102 34.596141,79.3530469 L33.3533318,80.5958002 C33.0840924,80.8650274 32.7308505,81 32.3783263,81 Z" id="Path" fill="#B49CDC"></path>
            </g>
        </g>
    </g>
</svg>