<?xml version="1.0" encoding="UTF-8"?>
<svg width="32px" height="32px" viewBox="0 0 32 32" version="1.1" xmlns="http://www.w3.org/2000/svg" xmlns:xlink="http://www.w3.org/1999/xlink">
    <title>twitter</title>
    <g id="Landing-page" stroke="none" stroke-width="1" fill="none" fill-rule="evenodd">
        <g id="homepage-main-banner-copy-3" transform="translate(-214.000000, -6392.000000)" fill="#FFFFFF" fill-rule="nonzero">
            <g id="Group-3" transform="translate(161.000000, 6392.000000)">
                <path d="M69,0 C60.1776363,0 53,7.17763635 53,16 C53,24.8217192 60.1776363,32 69,32 C77.8217192,32 85,24.8217192 85,16 C85,7.17763635 77.8230081,0 69,0 Z M76.1376782,12.3380327 C76.1447676,12.4965762 76.1486345,12.6564086 76.1486345,12.816241 C76.1486345,17.682752 72.4454201,23.2923548 65.6699428,23.2923548 C63.5901877,23.2923548 61.6541529,22.6846048 60.0248933,21.6392492 C60.3129783,21.6734069 60.6062193,21.690808 60.9033272,21.690808 C62.6292596,21.690808 64.2166277,21.1017482 65.4772416,20.1143962 C63.8660276,20.0847499 62.5055184,19.0200596 62.0369774,17.5564328 C62.2612584,17.5989688 62.4926287,17.6228148 62.7291549,17.6228148 C63.0649319,17.6228148 63.3910416,17.5789898 63.6997503,17.4945622 C62.0150649,17.1568517 60.7460727,15.6687344 60.7460727,13.8835092 C60.7460727,13.8680416 60.7460727,13.8519294 60.7467172,13.8371063 C61.2429711,14.1123016 61.8107629,14.2785789 62.4140015,14.297269 C61.4266495,13.6379602 60.7763635,12.5101104 60.7763635,11.2327399 C60.7763635,10.5573189 60.9574639,9.92443406 61.2745509,9.3804882 C63.0900669,11.6091195 65.8046403,13.0746798 68.864658,13.2293563 C68.8014984,12.9593168 68.7699186,12.6789656 68.7699186,12.3895916 C68.7699186,10.3562394 70.4185128,8.70700073 72.451865,8.70700073 C73.5113993,8.70700073 74.4671715,9.15427375 75.1400145,9.86965278 C75.9797793,9.70466446 76.7660517,9.39917828 77.4794973,8.97575123 C77.2023685,9.83613953 76.620398,10.5573189 75.8579715,11.0136148 C76.6036413,10.9246757 77.3151535,10.7274631 77.9731733,10.4342222 C77.4820752,11.1715137 76.8575687,11.8205108 76.1376782,12.3380327 Z" id="twitter"></path>
            </g>
        </g>
    </g>
</svg>