<?xml version="1.0" encoding="UTF-8"?>
<svg width="70px" height="97px" viewBox="0 0 70 97" version="1.1" xmlns="http://www.w3.org/2000/svg" xmlns:xlink="http://www.w3.org/1999/xlink">
    <title>1491063</title>
    <g id="Landing-page" stroke="none" stroke-width="1" fill="none" fill-rule="evenodd">
        <g id="homepage-main-banner-copy-3" transform="translate(-686.000000, -1604.000000)" fill-rule="nonzero">
            <g id="1491063" transform="translate(686.000000, 1604.000000)">
                <path d="M68.4291632,55.1594379 L45.3151468,94 L38,89.9029362 L61.1140166,51.0623742 C62.284941,49.0938541 64.8725586,48.4162422 66.8919336,49.5478925 C68.9120912,50.678777 69.6000876,53.1916834 68.4291632,55.1594379 L68.4291632,55.1594379 Z" id="Path" fill="#F9CFCF"></path>
                <path d="M45.9653533,95 C45.8332252,95 45.6987926,94.9667702 45.5758828,94.895674 L38.3956461,90.7597307 C38.2135858,90.6554047 38.0806896,90.4815282 38.0269167,90.2782858 C37.9723754,90.0750434 38.0015666,89.8571182 38.106808,89.6747411 L60.792116,50.4729224 C62.1556466,48.1151564 65.1799958,47.2998686 67.5337185,48.6553329 C68.6760115,49.3137454 69.4925935,50.3786425 69.8321318,51.6529645 C70.170902,52.9280591 69.993451,54.2603398 69.3312745,55.4048338 L46.6467345,94.6066525 C46.5000109,94.8593531 46.2365231,95 45.9653533,95 L45.9653533,95 Z M39.8651863,89.7829309 L45.679588,93.1321796 L67.9715848,54.6088657 C68.421742,53.8322172 68.5423472,52.9272863 68.3118913,52.0633132 C68.0814354,51.1985672 67.527573,50.4760135 66.751705,50.0293441 C65.146964,49.1050935 63.0828475,49.6607257 62.1518057,51.2696634 L39.8651863,89.7829309 Z" id="Shape" fill="#3762CC"></path>
                <path d="M57.7581259,73.3739534 C57.5239792,71.8938682 57.1213708,70.4696937 56.5734834,69.1200671 L48.744642,41 L18.2561309,41 L10.4272896,69.1200671 C9.88017479,70.4696937 9.47679347,71.8938682 9.24264704,73.3739534 L9.1267328,74.2444547 C9.04559295,74.9674135 9,75.7004673 9,76.4443926 C9,87.2445114 17.7754735,96 28.6003091,96 L38.4004636,96 C49.2245265,96 58,87.2445114 58,76.4443926 C58,75.7004673 57.9544071,74.9674135 57.8732672,74.2444547 L57.7581259,73.3739534 Z" id="Path" fill="#A4C9FF"></path>
                <path d="M38.4404349,96 L28.5595649,96 C17.2232881,96 8,86.9661059 8,75.8612399 C8,75.1289074 8.04518938,74.3666053 8.13323052,73.5958505 L8.2516576,72.7190493 C8.49240734,71.2205725 8.90534398,69.7605182 9.48033853,68.3580976 L17.3619725,40.5748003 C17.457805,40.2351455 17.7717925,40 18.1301904,40 L48.8705886,40 C49.2282073,40 49.542974,40.2351455 49.6388065,40.5748003 L57.5204405,68.3580976 C58.094656,69.7605182 58.5075927,71.2205725 58.746005,72.6998381 C58.746784,72.7059857 58.7483424,72.7129017 58.7491215,72.7190493 L58.8652111,73.5804813 C58.9555897,74.3666053 59,75.1289074 59,75.8620085 C59,86.9653375 49.7767117,96 38.4404349,96 L38.4404349,96 Z M18.7355709,41.5737849 L11.0050872,68.825315 C10.9965167,68.8537476 10.9871674,68.8821802 10.9754805,68.9098444 C10.4371047,70.213135 10.0522168,71.571754 9.83094493,72.9465104 L9.7171927,73.7879628 C9.6377218,74.4849467 9.59642819,75.1873096 9.59642819,75.8620085 C9.59642819,86.0985263 18.102921,94.4262151 28.5595649,94.4262151 L38.4412142,94.4262151 C48.8978581,94.4262151 57.4043509,86.0985263 57.4043509,75.8620085 C57.4043509,75.1880782 57.3630571,74.4849467 57.2812489,73.7725938 L57.1682758,72.9365206 C56.9462249,71.5656064 56.562116,70.2100612 56.0252986,68.9098444 C56.0136116,68.8821802 56.0042621,68.8537476 55.9956919,68.825315 L48.2652081,41.5737849 L18.7355709,41.5737849 Z" id="Shape" fill="#3762CC"></path>
                <path d="M60,22 L40,10.5109254 L57.1071006,1.20358202 C58.1914608,0.613222229 59.5192492,1.3756428 59.5474837,2.60530413 L60,22 Z" id="Path" fill="#A4C9FF"></path>
                <path d="M45,10.9583549 L56.4165895,5.10079697 C56.9866173,4.80837352 57.6833179,5.18640272 57.6985507,5.79473425 L58,18 L45,10.9583549 Z" id="Path" fill="#F9CFCF"></path>
                <path d="M60.2032174,23 C60.0661867,23 59.9291559,22.9649265 59.8061398,22.8940004 L39.4010172,11.1849465 C39.1503132,11.0407559 38.9969322,10.7718599 39,10.4834788 C39.0039394,10.1935388 39.1627705,9.92853995 39.4173674,9.7905845 L56.8716575,0.30440376 C57.6401197,-0.113359197 58.5502841,-0.100109303 59.3070675,0.337918176 C60.0584007,0.773607579 60.5185438,1.54989845 60.538787,2.41582134 L60.9997086,22.1831799 C61.0074943,22.4715609 60.858785,22.7404568 60.6104167,22.8877652 C60.4850648,22.9625884 60.344141,23 60.2032174,23 Z M41.4331207,10.5107582 L59.373247,20.805965 L58.9450261,2.45323295 C58.9349045,2.01364656 58.6359284,1.79385346 58.5074619,1.7198096 C58.3774386,1.64342747 58.0317474,1.48988404 57.632334,1.70733906 L41.4331207,10.5107582 Z" id="Shape" fill="#3762CC"></path>
                <path d="M8,22 L28,10.5109254 L10.8928994,1.20358202 C9.80777591,0.613222229 8.48075079,1.3756428 8.45175322,2.60530413 L8,22 Z" id="Path" fill="#A4C9FF"></path>
                <path d="M11.5834103,5.10079697 L23,10.9583549 L10,18 L10.3014493,5.79473425 C10.3166819,5.18640272 11.0141844,4.80837352 11.5834103,5.10079697 Z" id="Path" fill="#F9CFCF"></path>
                <path d="M7.79743352,23 C7.65651404,23 7.51481625,22.9625893 7.39024668,22.887768 C7.14266475,22.7404634 6.99395977,22.4715744 7,22.1832006 L7.46187418,2.41634406 C7.48133813,1.55044316 7.94224555,0.774172002 8.69277723,0.338493663 C9.4503159,-0.100302031 10.3604525,-0.113551589 11.1288911,0.304980099 L28.5826454,9.79091994 C28.8372345,9.92887189 28.9960607,10.1938641 29,10.4837967 C29.0030677,10.7729499 28.8496915,11.0410596 28.5982166,11.1852465 L8.19372043,22.8940031 C8.07148658,22.9649274 7.93368154,23 7.79743352,23 Z M9.94470145,1.59642714 C9.73760463,1.59642714 9.57332846,1.67280714 9.49235823,1.71957066 C9.36467442,1.79361244 9.06570744,2.01340015 9.05558622,2.45375472 L8.62737821,20.8052414 L26.5661753,10.5110753 L10.368238,1.70787978 C10.2164188,1.62526447 10.0723853,1.59642714 9.94470145,1.59642714 Z" id="Shape" fill="#3762CC"></path>
                <path d="M39.5541891,50 L28.4458109,50 C16.6018446,50 7,40.3738932 7,28.5 C7,16.6261066 16.6018446,7 28.4458109,7 L39.5541891,7 C51.3989238,7 61,16.6261066 61,28.5 C61,40.3738932 51.3989238,50 39.5541891,50 Z" id="Path" fill="#A4C9FF"></path>
                <path d="M49.1405763,40.0019879 C47.1945769,32.8943557 41.0211966,28 34,28 C26.9795835,28 20.8054231,32.8943557 18.8594237,40.0019879 L17,46.7941071 C20.3078087,48.826198 24.1990274,50 28.3640118,50 L39.6359884,50 C43.8017527,50 47.6921913,48.826198 51,46.7941071 L49.1405763,40.0019879 Z" id="Path" fill="#E0EBFC"></path>
                <path d="M24.0070306,30 L23.9929694,30 C22.8925069,30 22,29.0174722 22,27.8050087 L22,25.1958066 C22,23.9833429 22.8925069,23 23.9929694,23 L24.0070306,23 C25.107493,23 26,23.9825276 26,25.1958066 L26,27.8050087 C26,29.0174722 25.1082332,30 24.0070306,30 Z" id="Path" fill="#3762CC"></path>
                <path d="M45.0074019,30 L44.9925981,30 C43.8919319,30 43,29.0174722 43,27.8050087 L43,25.1958066 C43,23.9833429 43.8919319,23 44.9925981,23 L45.0074019,23 C46.1080681,23 47,23.9825276 47,25.1958066 L47,27.8050087 C47,29.0174722 46.1080681,30 45.0074019,30 Z" id="Path" fill="#3762CC"></path>
                <path d="M37.107448,38 C35.8722892,38 34.7276014,37.5208809 34,36.7243736 C33.2723986,37.5208809 32.1269442,38 30.892552,38 C28.7457831,38 27,36.5542901 27,34.7775247 C27,34.3485194 27.3511502,34 27.7851041,34 C28.2182913,34 28.5702081,34.3485194 28.5702081,34.7775247 C28.5702081,35.6810935 29.6336255,36.4449506 30.892552,36.4449506 C31.7842278,36.4449506 32.6115006,36.0637814 32.997919,35.4730448 C33.2187295,35.1351557 33.5936473,34.9347001 34,34.9347001 L34.0007668,34.9347001 C34.4071193,34.9347001 34.7812705,35.135915 35.002081,35.4730448 C35.3884994,36.0637814 36.2150055,36.4449506 37.107448,36.4449506 C38.3663747,36.4449506 39.4297919,35.6818527 39.4297919,34.7782839 C39.4297919,34.3492787 39.7817087,34.0007593 40.2148959,34.0007593 C40.6480834,34.0007593 41,34.3492787 41,34.7782839 C41,36.5542901 39.2542169,38 37.107448,38 Z" id="Path" fill="#3762CC"></path>
                <path d="M35.2540681,30.4853282 L36.5085464,29.2430736 C36.779297,28.973659 36.9409271,28.6387334 37,28.2898868 C36.022836,28.1007234 35.0202378,28 34.0004103,28 C32.979762,28 31.977164,28.1015422 31,28.2898868 C31.0590729,28.6387334 31.2198824,28.973659 31.4914536,29.2430736 L32.7459319,30.4853282 C33.4383973,31.1715573 34.5616025,31.1715573 35.2540681,30.4853282 Z" id="Path" fill="#F9A7A7"></path>
                <g id="Group" transform="translate(0.000000, 6.000000)" fill="#3762CC">
                    <path d="M39.5664748,44.6718582 L28.3418769,44.6718582 C15.9545871,44.6718582 5.87637071,34.6670706 5.87637071,22.3683144 C5.87637071,10.0695584 15.9545871,0.063999846 28.3418769,0.063999846 L39.5664748,0.063999846 C51.9545413,0.063999846 62.0327576,10.0695584 62.0327576,22.3683144 C62.0327576,34.6670706 51.9545413,44.6718582 39.5664748,44.6718582 Z M28.3418769,1.64394658 C16.8314602,1.64394658 7.46701399,10.9408808 7.46701399,22.3683144 C7.46701399,33.7965192 16.8314602,43.0934535 28.3418769,43.0934535 L39.5664748,43.0934535 C51.0776681,43.0934535 60.4421144,33.7965192 60.4421144,22.3683144 C60.4421144,10.9408808 51.0776681,1.64394658 39.5664748,1.64394658 L28.3418769,1.64394658 Z" id="Shape"></path>
                    <path d="M67.1130299,28.3295485 L54.5214731,28.3295485 C54.0818713,28.3295485 53.7261514,27.9756219 53.7261514,27.5399607 C53.7261514,27.1042995 54.0818713,26.7503728 54.5214731,26.7503728 L67.1130299,26.7503728 C67.5518549,26.7503728 67.9083515,27.1042995 67.9083515,27.5399607 C67.9083515,27.9756219 67.5526316,28.3295485 67.1130299,28.3295485 Z" id="Path"></path>
                    <path d="M54.526133,24.8134151 C54.2511878,24.8134151 53.9824561,24.670765 53.8356634,24.4155369 C53.6174158,24.0377069 53.7486751,23.5550095 54.1300257,23.3383355 L65.0346309,17.1318973 C65.4175348,16.9144523 65.9021839,17.0463073 66.1204313,17.4241374 C66.3386787,17.8027386 66.2074196,18.2854358 65.826069,18.5021099 L54.9214638,24.708548 C54.7964181,24.7794875 54.6604989,24.8134151 54.526133,24.8134151 L54.526133,24.8134151 Z" id="Path"></path>
                    <path d="M65.4299617,38.05212 C65.2955959,38.05212 65.1596766,38.0189634 65.0346309,37.9480241 L54.1300257,31.7415858 C53.7486751,31.5249119 53.6174158,31.0422145 53.8356634,30.6636135 C54.0546875,30.2857832 54.5393366,30.1546994 54.9214638,30.3713734 L65.826069,36.5778114 C66.2074196,36.7944856 66.3386787,37.2764117 66.1204313,37.6550128 C65.9736386,37.9102409 65.7056836,38.05212 65.4299617,38.05212 L65.4299617,38.05212 Z" id="Path"></path>
                    <path d="M13.3876553,28.3295485 L0.795321637,28.3295485 C0.35649676,28.3295485 0,27.9756219 0,27.5399607 C0,27.1042995 0.35649676,26.7503728 0.795321637,26.7503728 L13.3876553,26.7503728 C13.8264802,26.7503728 14.1829769,27.1042995 14.1829769,27.5399607 C14.1829769,27.9756219 13.8264802,28.3295485 13.3876553,28.3295485 Z" id="Path"></path>
                    <path d="M2.47916667,38.05212 C2.20344476,38.05212 1.93548977,37.9102409 1.78792042,37.6550128 C1.56967283,37.2771828 1.70170875,36.7944856 2.08305911,36.5778114 L12.9884412,30.3713734 C13.3697918,30.1546994 13.8552175,30.2857832 14.0734649,30.6636135 C14.2917123,31.0422145 14.1604532,31.5249119 13.7791027,31.7415858 L2.87372076,37.9480241 C2.74867512,38.0189634 2.61275585,38.05212 2.47916667,38.05212 Z" id="Path"></path>
                    <path d="M13.3829953,24.8134151 C13.2486293,24.8134151 13.1127102,24.7794875 12.9884412,24.708548 L2.08305911,18.5021099 C1.70170875,18.2854358 1.56967283,17.8027386 1.78792042,17.4241374 C2.00694444,17.0463073 2.4923702,16.9144523 2.87372076,17.1318973 L13.7791027,23.3383355 C14.1604532,23.5550095 14.2917123,24.0369356 14.0734649,24.4155369 C13.9266722,24.6699938 13.658717,24.8134151 13.3829953,24.8134151 Z" id="Path"></path>
                    <path d="M33.9541758,25.7749543 C33.3211807,25.7749543 32.6881854,25.5374611 32.206643,25.0624746 L31.0190971,23.8919722 C30.654057,23.5326482 30.4163924,23.0738544 30.330181,22.5649403 C30.2587263,22.1423875 30.5398848,21.7406539 30.9639529,21.6589191 C32.9507035,21.2780047 34.9592014,21.2780047 36.9451754,21.6589191 C37.3684667,21.7406539 37.6496254,22.1423875 37.5781707,22.5649403 C37.4919591,23.0730834 37.2542947,23.5318771 36.8892544,23.8919722 L35.7024854,25.0617036 C35.2201664,25.5374611 34.5871711,25.7749543 33.9541758,25.7749543 Z M32.4101334,23.0368425 L33.3281707,23.9420925 C33.6737939,24.2829108 34.2361111,24.2821398 34.5809576,23.9420925 L35.4989948,23.0368425 C34.467562,22.9227223 33.4431196,22.9227223 32.4101334,23.0368425 Z" id="Shape"></path>
                    <path d="M42.3034997,90.8033741 L37.3125456,90.8033741 C37.0554643,90.8033741 36.7968293,90.7794705 36.5459614,90.7332058 C35.4166667,90.5234715 34.5964912,89.5179807 34.5964912,88.3413097 L34.5964912,68.6949142 C34.5964912,68.4697583 34.5048427,68.2623373 34.3363029,68.1104342 C34.1693164,67.9593022 33.9495158,67.8868204 33.7211714,67.9091819 C33.3196272,67.9469649 33.005848,68.3217106 33.005848,68.7627694 L33.005848,88.3590446 C33.005848,89.6999558 31.9355812,90.7964344 30.6183298,90.8033741 L25.6056287,90.8033741 C23.608781,90.8033741 21.8915386,89.3969207 21.5233918,87.459963 L20.8678728,84.0132271 C15.7068257,63.8463513 16.8881579,57.8249729 16.9409722,57.5782267 C17.0318439,57.1525895 17.4535819,56.8796266 17.88464,56.9706142 C18.3125913,57.0608307 18.5859831,57.4772149 18.4982182,57.9020811 C18.4819079,57.9830446 17.3898941,64.0175316 22.4157986,83.6477342 C22.4196819,83.663927 22.4243421,83.6801197 22.4266722,83.6963124 L23.0868512,87.1669519 C23.3128655,88.3598156 24.3722588,89.2241984 25.6056287,89.2241984 L30.5965825,89.2241984 C31.0470578,89.2218853 31.4159813,88.8255491 31.4159813,88.3590446 L31.4159813,68.7627694 C31.4159813,67.5167011 32.3627558,66.451066 33.5704953,66.3369459 C34.2415479,66.2737171 34.9102705,66.4934754 35.4065699,66.9422451 C35.9028691,67.3902436 36.1879111,68.0286994 36.1879111,68.6949142 L36.1879111,88.3413097 C36.1879111,88.7515252 36.4675164,89.1116205 36.8387702,89.1810178 C36.9941064,89.209548 37.153326,89.2241984 37.3125456,89.2241984 L42.3042763,89.2241984 C43.5368696,89.2241984 44.5962628,88.3590446 44.8230538,87.1669519 L45.4832328,83.6963124 C45.4863395,83.6801197 45.4902229,83.663927 45.4933298,83.6477342 C50.529331,63.9805196 49.4233369,57.9606833 49.4116868,57.9020811 C49.3262518,57.4764439 49.6019737,57.0592886 50.0307018,56.9721564 C50.4570997,56.883482 50.8780611,57.1533605 50.9681561,57.5782267 C51.0217471,57.8249729 52.2030793,63.8471223 47.0412555,84.0132271 L46.3857365,87.459963 C46.0175895,89.3969207 44.3003473,90.8033741 42.3034997,90.8033741 L42.3034997,90.8033741 Z" id="Path"></path>
                </g>
            </g>
        </g>
    </g>
</svg>